@startuml classes

!theme mimeograph

top to bottom direction

hide members

hide circle

skinparam roundcorner 10

skinparam noteFontSize 10
skinparam noteBorderThickness 1
skinparam noteMargin 2
skinparam notePadding 2

skinparam nodesep 10
skinparam ranksep 30

set namespaceSeparator none

'--------------------------------------
' Classes
'--------------------------------------

class "Action" as game.actions.Action #e0e0d0 {
}

class "EscapeAction" as game.actions.EscapeAction #e0e0d0 {
}

class "EventHandler" as game.input_handlers.EventHandler #e0e0d0 {
}

class "MovementAction" as game.actions.MovementAction #e0e0d0 {
}

class "WaitAction" as game.actions.WaitAction #e0e0d0 {
}

'--------------------------------------
' Relations
'--------------------------------------

game.actions.EscapeAction --|> game.actions.Action
game.actions.MovementAction --|> game.actions.Action
game.actions.WaitAction --|> game.actions.Action

'--------------------------------------
' Order Rules
'--------------------------------------

game.actions.Action -[hidden]down- game.actions.MovementAction
game.actions.Action -[hidden]down- game.actions.WaitAction
game.actions.Action -[hidden]down- game.actions.EscapeAction

@enduml
